<?xml version="1.0" encoding="UTF-8"?>
<!DOCTYPE svg PUBLIC "-//W3C//DTD SVG 1.1//EN" "http://www.w3.org/Graphics/SVG/1.1/DTD/svg11.dtd">
<!-- Creator: CorelDRAW -->
<svg xmlns="http://www.w3.org/2000/svg" xml:space="preserve" width="297mm" height="210mm" version="1.1" style="shape-rendering:geometricPrecision; text-rendering:geometricPrecision; image-rendering:optimizeQuality; fill-rule:evenodd; clip-rule:evenodd"
viewBox="0 0 29700 21000"
 xmlns:xlink="http://www.w3.org/1999/xlink"
 xmlns:xodm="http://www.corel.com/coreldraw/odm/2003">
 <defs>
  <style type="text/css">
   <![CDATA[
    .fil1 {fill:#FEFEFE}
    .fil0 {fill:#0F1950}
    .fil2 {fill:#FEFEFE;fill-rule:nonzero}
   ]]>
  </style>
 </defs>
 <g id="Слой_x0020_1">
  <metadata id="CorelCorpID_0Corel-Layer"/>
  <g id="_1911740378976">
   <polygon class="fil0" points="7.94,4597.99 29676.55,4597.99 29676.55,16409.05 7.94,16409.05 "/>
   <g>
    <path class="fil1" d="M5547.04 10363.58c-1.47,1.08 -1.84,1.74 -5.23,1.74 -3.41,0 -8.79,-5.22 -8.79,-8.79 0,-3.57 0.86,-4.34 2.28,-5.9l458.02 -807.02c52.37,-92.33 135.68,-129.35 240.42,-129.56l802.93 -4.68 56.52 0.05 0.6 -0.01 2.67 0.01c101.14,0.06 179.43,-26.69 255.53,-96.39l0.03 0.04c1.06,-0.9 2.37,-1.49 3.82,-1.49 3.2,0 5.72,2.56 5.72,5.75 0,1.02 -0.23,1.97 -0.68,2.77l-0.59 0.77 -0.07 0.04 -466.77 605.68c-34.03,44.15 -128.65,88.9 -212.51,88.9l-638.97 0c-72.99,0 -142.17,21.67 -195.92,71.42l-298.95 276.73 -0.06 -0.06z"/>
    <path class="fil1" d="M7338.37 11036.7c-76.09,69.7 -154.39,96.44 -255.52,96.38 -433.14,-0.39 -886.16,-0.8 -1317.83,-1.13l-1.26 0c-44.38,0 -80.32,-35.95 -80.32,-80.33 0,-43.47 34.49,-78.87 77.6,-80.29l0.67 -0.04 2.05 0 2.4 0c212.11,-0.7 549.03,0 786.18,0 70.17,-3.7 130.1,-22.32 173.68,-83.62l612.75 -795.06 0 0 2.82 -3.68 0.03 -0.03 0.67 -0.86c0.42,-0.79 0.64,-1.71 0.64,-2.7 0,-3.19 -2.52,-5.75 -5.71,-5.75 -1.46,0 -2.76,0.59 -3.82,1.49l-0.04 -0.03c-76.1,69.7 -154.39,96.44 -255.52,96.38l-1.55 0 -0.35 0 -14.4 -0.01 -4.07 0.02c-294.2,0 -699.95,0 -994.15,0 -91.47,0 -180.46,30.28 -240.3,110.84 -19.89,25.27 -40.28,49.57 -55.17,75.87l-346.96 612.5 -0.1 0.14c-58.3,102.56 -168.54,171.76 -294.97,171.76 -187.25,0 -339.05,-151.8 -339.05,-339.05 0,-187.26 151.8,-339.06 339.05,-339.06 18.49,0 36.63,1.5 54.31,4.35 4.98,-1.44 8.61,-5.97 8.61,-11.42 0,-2.48 -0.75,-4.8 -2.05,-6.73l-193.5 -251.33c-46.47,-60.35 -117.73,-89.36 -191.38,-61.07l-0.12 -0.19 -2.09 1.05c-12.25,4.93 -24.17,11.46 -35.79,19.74 -223.09,130.56 -377.51,363.63 -377.51,640.83 0,415.75 323.34,743.6 739.09,743.6l7.91 -0.04c6.7,0.67 13.23,1.45 20,2.09l1786.72 0 0.75 0 0.12 0c11.02,0 20.86,-5.36 26.93,-13.59l0.27 -0.12 378.51 -493.03 0.2 -0.12c0.74,-0.91 1.14,-2.13 1.14,-3.47 0,-3.19 -2.52,-5.75 -5.71,-5.75 -1.45,0 -2.76,0.59 -3.82,1.49l-0.04 -0.03z"/>
    <path class="fil1" d="M5896.72 8171.05c1269.18,0 2298.43,1029.25 2298.43,2298.44 0,1269.19 -1029.25,2298.43 -2298.43,2298.43 -1269.19,0 -2298.44,-1029.24 -2298.44,-2298.43 0,-1269.19 1029.25,-2298.44 2298.44,-2298.44zm0 188.02c1165.38,0 2110.45,945.07 2110.45,2110.42 0,1165.39 -945.07,2110.45 -2110.45,2110.45 -1165.31,0 -2110.42,-945.06 -2110.42,-2110.45 0,-1165.35 945.11,-2110.42 2110.42,-2110.42z"/>
    <path class="fil2" d="M10806.55 8595.77l-491.64 0 -203.53 972.71c-68.72,298.69 -121.59,549.79 -459.92,549.79 -177.1,0 -282.83,-84.58 -282.83,-224.67 0,-100.44 29.08,-198.24 47.58,-288.11l219.39 -1009.72 -491.64 0 -214.1 985.93c-26.43,124.23 -52.87,237.89 -52.87,396.48 0,298.69 272.26,544.51 763.9,544.51 681.95,0 835.26,-340.98 940.99,-848.48l224.67 -1078.44zm-169.17 1887.27l1625.59 0 84.58 -422.92 -1036.15 0 1215.89 -1041.43 84.58 -422.92 -1543.64 0 -87.23 422.92 919.85 0 -1181.53 1041.43 -81.94 422.92zm1855.54 0l922.49 0c552.44,-2.64 859.05,-251.11 859.05,-634.38 0,-169.16 -100.44,-330.4 -266.97,-370.05l0 -5.28c216.75,-47.58 348.91,-216.75 348.91,-465.21 0,-206.17 -79.3,-412.35 -589.44,-412.35l-880.19 0 -393.85 1887.27zm800.9 -1501.35l322.48 0c105.73,0 248.46,10.57 248.46,148.02 0,145.37 -97.8,208.81 -296.04,208.81l-348.91 0 74.01 -356.83zm-142.73 687.24l346.26 0c126.88,0 285.47,13.21 285.47,187.66 0,203.53 -163.88,240.54 -335.69,240.54l-385.91 0 89.87 -428.2zm1250.24 814.11l1511.93 0 89.87 -422.92 -1022.93 0 74.01 -359.48 935.71 0 79.29 -380.62 -935.7 0 60.79 -301.33 1015 0 89.87 -422.92 -1506.64 0 -391.2 1887.27zm1810.61 0l491.64 0 121.59 -573.58 256.4 -219.39 388.55 792.97 560.37 0 -560.37 -1110.16 901.34 -777.11 -650.23 0 -769.18 740.11 -5.29 0 155.95 -740.11 -491.64 0 -399.13 1887.27zm1958.63 0l491.64 0 393.85 -1887.27 -491.64 0 -393.85 1887.27zm853.77 -634.38c-5.29,446.71 309.26,674.03 758.61,674.03 552.43,0 851.12,-282.83 851.12,-618.52 0,-370.05 -303.97,-504.85 -563.01,-576.22 -264.32,-71.37 -343.62,-84.58 -343.62,-198.24 0,-118.95 126.87,-169.17 248.46,-169.17 87.23,0 153.31,15.86 198.25,50.22 42.29,31.72 66.08,81.94 66.08,153.31l491.64 0c13.21,-459.92 -327.76,-607.94 -729.53,-607.94 -377.99,0 -766.54,182.38 -766.54,610.58 0,277.54 190.31,401.77 425.56,486.36 195.6,68.72 481.07,89.87 481.07,277.53 0,103.09 -81.94,187.67 -280.19,187.67 -232.6,0 -346.26,-66.08 -346.26,-269.61l-491.64 0zm3586.86 -1252.89l-1601.8 0 -84.58 422.92 555.08 0 -309.26 1464.35 491.64 0 309.26 -1464.35 555.08 0 84.58 -422.92zm-597.38 1887.27l515.43 0 190.31 -338.33 663.45 0 44.94 338.33 494.28 0 -309.25 -1887.27 -496.93 0 -1102.23 1887.27zm1250.25 -1382.41l5.29 0 71.36 679.31 -430.84 0 354.19 -679.31zm771.82 1382.41l475.78 0 240.53 -1234.39 5.29 0 436.13 1234.39 504.86 0 393.84 -1887.27 -475.78 0 -235.25 1234.39 -5.28 0 -441.42 -1234.39 -504.86 0 -393.84 1887.27z"/>
    <path class="fil2" d="M17987.89 12358.12l322.89 0 119.22 -211.95 415.62 0 28.15 211.95 309.65 0 -193.74 -1182.28 -311.3 0 -690.49 1182.28zm783.22 -866.01l3.31 0 44.71 425.55 -269.9 0 221.88 -425.55zm496.76 866.01l307.99 0 246.73 -1182.28 -307.99 0 -246.73 1182.28zm1013.39 -943.84l226.86 0c81.13,0 165.58,21.53 165.58,122.53 0,127.5 -96.04,162.28 -206.98,162.28l-245.07 0 59.61 -284.81zm-503.38 943.84l307.99 0 89.42 -430.52 205.33 0c109.28,0 153.99,54.64 153.99,158.96 0,79.48 -8.28,142.4 -8.28,203.67 0,23.18 4.97,44.71 9.94,67.89l309.64 0c-18.21,-33.12 -18.21,-84.45 -18.21,-125.85 0,-67.89 4.96,-134.12 4.96,-220.22 0,-114.26 -33.11,-175.53 -120.87,-197.05l0 -3.31c185.45,-26.5 269.9,-152.34 269.9,-329.52 0,-251.69 -163.93,-306.33 -379.19,-306.33l-579.55 0 -245.07 1182.28zm1387.61 0l309.65 0 321.23 -799.78 3.32 0 0 799.78 309.64 0 561.34 -1182.28 -316.27 0 -334.48 861.04 -3.32 0 0 -861.04 -281.49 0 -347.73 861.04 -3.31 0 8.27 -861.04 -309.64 0 82.79 1182.28zm1187.25 0l322.89 0 119.22 -211.95 415.62 0 28.15 211.95 309.65 0 -193.74 -1182.28 -311.3 0 -690.49 1182.28zm783.22 -866.01l3.31 0 44.71 425.55 -269.9 0 221.88 -425.55zm678.91 866.01l304.68 0 94.38 -447.08 579.55 -735.2 -369.25 0 -329.52 491.79 -140.75 -491.79 -317.92 0 273.21 735.2 -94.38 447.08zm813.03 -397.41c-3.31,279.84 193.74,422.25 475.23,422.25 346.08,0 533.19,-177.18 533.19,-387.47 0,-231.82 -190.43,-316.27 -352.7,-360.98 -165.59,-44.71 -215.26,-52.99 -215.26,-124.19 0,-74.51 79.48,-105.98 155.65,-105.98 54.64,0 96.04,9.94 124.19,31.47 26.49,19.87 41.4,51.33 41.4,96.04l307.99 0c8.27,-288.12 -205.33,-380.85 -457.02,-380.85 -236.79,0 -480.2,114.25 -480.2,382.5 0,173.87 119.22,251.69 266.59,304.68 122.54,43.05 301.37,56.3 301.37,173.87 0,64.57 -51.33,117.56 -175.52,117.56 -145.72,0 -216.92,-41.4 -216.92,-168.9l-307.99 0z"/>
   </g>
  </g>
 </g>
</svg>
